<?xml version="1.0" standalone="no"?>
<svg viewBox="0 0 200 200" xmlns="http://www.w3.org/2000/svg">
  <path fill="#00FF98" d="M14.3,-26.5C17.8,-20,19.4,-14.8,32.8,-8.3C46.2,-1.8,71.4,6.1,79.8,18C88.3,29.9,79.9,46,65.7,50.1C51.5,54.2,31.4,46.4,16.6,45.8C1.8,45.2,-7.7,51.9,-11.7,47.3C-15.6,42.7,-14,26.7,-18.2,18C-22.4,9.2,-32.5,7.7,-41.6,0.7C-50.8,-6.2,-59,-18.4,-55.4,-24.8C-51.7,-31.1,-36.1,-31.6,-24.9,-34.5C-13.7,-37.5,-6.9,-42.9,-0.7,-41.8C5.4,-40.7,10.8,-33,14.3,-26.5Z" transform="translate(100 100)" />
</svg>
