<svg xmlns="http://www.w3.org/2000/svg" viewBox="0 0 300.46 216.17"><defs><style>.cls-1{fill:#00ff98;}</style></defs><g id="Calque_2" data-name="Calque 2"><g id="Calque_1-2" data-name="Calque 1"><path class="cls-1" d="M0,215.81V173.09H18.24v5.76H6.12v12.54H16.68v5.76H6.12v12.54H18.24v6.12Z"/><path class="cls-1" d="M43.14,203.63v2.64a9.51,9.51,0,0,1-.75,3.75,10.37,10.37,0,0,1-2.07,3.15,10,10,0,0,1-3.09,2.19,9,9,0,0,1-3.81.81,13.7,13.7,0,0,1-3.54-.48A8.37,8.37,0,0,1,26.64,214a9.29,9.29,0,0,1-2.37-3.09,10.94,10.94,0,0,1-.93-4.83V182.57a10.4,10.4,0,0,1,.72-3.9,9.18,9.18,0,0,1,2-3.12,9.48,9.48,0,0,1,3.15-2.07,10.58,10.58,0,0,1,4-.75,9.28,9.28,0,0,1,7,2.82,10,10,0,0,1,2.07,3.27,11,11,0,0,1,.75,4.11v2.4H37v-2a5,5,0,0,0-1-3.12,3.3,3.3,0,0,0-2.76-1.32q-2.28,0-3,1.41a7.56,7.56,0,0,0-.75,3.57v21.84a5.66,5.66,0,0,0,.81,3.12,3.19,3.19,0,0,0,2.91,1.26,4.44,4.44,0,0,0,1.29-.21,3.85,3.85,0,0,0,1.29-.69,3.66,3.66,0,0,0,.9-1.32,5.35,5.35,0,0,0,.36-2.1v-2.1Z"/><path class="cls-1" d="M49.62,215.81V173.09h6.12v18.3H63.3v-18.3h6.12v42.72H63.3v-19H55.74v19Z"/><path class="cls-1" d="M76.32,183.17a10.91,10.91,0,0,1,.9-4.56,9.64,9.64,0,0,1,2.4-3.3,10.15,10.15,0,0,1,3.27-1.92,10.89,10.89,0,0,1,10.71,1.92,10,10,0,0,1,2.34,3.3,10.91,10.91,0,0,1,.9,4.56v22.56a10.82,10.82,0,0,1-.9,4.62,9.53,9.53,0,0,1-2.34,3.18,10.29,10.29,0,0,1-3.33,2,10.65,10.65,0,0,1-7.38,0,9.63,9.63,0,0,1-3.27-2,9.16,9.16,0,0,1-2.4-3.18,10.82,10.82,0,0,1-.9-4.62Zm6.12,22.56A4.07,4.07,0,0,0,83.67,209a4.56,4.56,0,0,0,5.82,0,4.07,4.07,0,0,0,1.23-3.27V183.17a4.07,4.07,0,0,0-1.23-3.27,4.56,4.56,0,0,0-5.82,0,4.07,4.07,0,0,0-1.23,3.27Z"/><path d="M103.74,215.81V173.09h6.12v36.6H122v6.12Z"/><path d="M127.08,183.17a10.91,10.91,0,0,1,.9-4.56,9.64,9.64,0,0,1,2.4-3.3,10.15,10.15,0,0,1,3.27-1.92,10.89,10.89,0,0,1,10.71,1.92,10,10,0,0,1,2.34,3.3,10.91,10.91,0,0,1,.9,4.56v22.56a10.82,10.82,0,0,1-.9,4.62,9.53,9.53,0,0,1-2.34,3.18,10.29,10.29,0,0,1-3.33,2,10.65,10.65,0,0,1-7.38,0,9.63,9.63,0,0,1-3.27-2,9.16,9.16,0,0,1-2.4-3.18,10.82,10.82,0,0,1-.9-4.62Zm6.12,22.56a4.07,4.07,0,0,0,1.23,3.27,4.56,4.56,0,0,0,5.82,0,4.07,4.07,0,0,0,1.23-3.27V183.17a4.07,4.07,0,0,0-1.23-3.27,4.56,4.56,0,0,0-5.82,0,4.07,4.07,0,0,0-1.23,3.27Z"/><path d="M185.52,173.09l-6.36,42.72H173.4l-4.68-27.72h-.12L164,215.81h-5.76l-6.36-42.72h6.48l3.06,27.12h.12l4.8-27.12H171l5,27.78h.12L179,173.09Z"/><path d="M191.12,202.25v-6.12H204v6.12Z"/><path d="M213.64,215.81v-37h-7.08v-5.76h20.28v5.76h-7.08v37Z"/><path d="M231,215.81V173.09h18.24v5.76H237.16v12.54h10.56v5.76H237.16v12.54h12.12v6.12Z"/><path d="M274.18,203.63v2.64a9.51,9.51,0,0,1-.75,3.75,10.37,10.37,0,0,1-2.07,3.15,10,10,0,0,1-3.09,2.19,9,9,0,0,1-3.81.81,13.7,13.7,0,0,1-3.54-.48,8.37,8.37,0,0,1-3.24-1.68,9.29,9.29,0,0,1-2.37-3.09,10.94,10.94,0,0,1-.93-4.83V182.57a10.4,10.4,0,0,1,.72-3.9,9.18,9.18,0,0,1,2-3.12,9.48,9.48,0,0,1,3.15-2.07,10.58,10.58,0,0,1,4-.75,9.28,9.28,0,0,1,7,2.82,10,10,0,0,1,2.07,3.27,11,11,0,0,1,.75,4.11v2.4h-6.12v-2a5,5,0,0,0-1-3.12,3.3,3.3,0,0,0-2.76-1.32q-2.28,0-3,1.41a7.56,7.56,0,0,0-.75,3.57v21.84a5.66,5.66,0,0,0,.81,3.12,3.19,3.19,0,0,0,2.91,1.26,4.44,4.44,0,0,0,1.29-.21,3.85,3.85,0,0,0,1.29-.69,3.66,3.66,0,0,0,.9-1.32,5.35,5.35,0,0,0,.36-2.1v-2.1Z"/><path d="M280.66,215.81V173.09h6.12v18.3h7.56v-18.3h6.12v42.72h-6.12v-19h-7.56v19Z"/><path class="cls-1" d="M160,44a72.31,72.31,0,0,0-9.8,18.3,71.47,71.47,0,0,0-5.34-11.5A70.14,70.14,0,0,0,140.42,44a25.39,25.39,0,0,1,9.81-14.37A25.3,25.3,0,0,1,160,44Z"/><path class="cls-1" d="M150,131.77h.11l-.06,0Z"/><path class="cls-1" d="M167.36,97.34A23.67,23.67,0,0,0,156.94,91v21.64H143.52V91a23.58,23.58,0,0,0-10.79,6.75,41.37,41.37,0,0,1,10.61-27.48c.53.83,1,1.69,1.55,2.55a72,72,0,0,1,5.34,11.51,71.17,71.17,0,0,1,5.35-11.51c.45-.78.92-1.55,1.4-2.31a41.29,41.29,0,0,1,10.38,26.83Z"/><path class="cls-1" d="M149.78,131.61l.22.16-.29,0h-.14a0,0,0,0,0,0,0c-.06-.17-.13-.33-.19-.49Z"/><path class="cls-1" d="M182.15,112.31a41.58,41.58,0,0,1-10.29,11.24A23.8,23.8,0,0,0,170,100.63a22.65,22.65,0,0,0-2.64-3.29A23.67,23.67,0,0,0,156.94,91v21.64H146.57a41.09,41.09,0,0,1,3.54-13.74A40.35,40.35,0,0,1,152.74,94a41.63,41.63,0,0,1,32.59-19.49,41.54,41.54,0,0,1-3.18,37.83Z"/><path class="cls-1" d="M149.37,131.3l.41.31-.07.18h-.15C149.5,131.62,149.43,131.46,149.37,131.3Z"/><path class="cls-1" d="M153.24,112.64h-9.72V91a23.58,23.58,0,0,0-10.79,6.75,22.55,22.55,0,0,0-2.27,2.89,23.7,23.7,0,0,0-1.79,23.06A41.65,41.65,0,0,1,115.6,73.47a41.82,41.82,0,0,1,9.5,2A41.39,41.39,0,0,1,147.61,93.9a42.39,42.39,0,0,1,2.5,5A41.23,41.23,0,0,1,153.24,112.64Z"/><path d="M150.23,66.73l-1.41-3.93a70.41,70.41,0,0,0-5.23-11.26,69.13,69.13,0,0,0-4.38-6.67,68.17,68.17,0,0,0-10.93-11.65l-.8-.68.36-1A72.33,72.33,0,0,1,149.26.82l1-.82,1,.82a72.3,72.3,0,0,1,21.43,30.73l.35,1-.8.68a69.6,69.6,0,0,0-15.3,18.33,69.72,69.72,0,0,0-5.24,11.26ZM131,31.61A73.15,73.15,0,0,1,146.19,50a72.33,72.33,0,0,1,4,8.13A72.84,72.84,0,0,1,169.45,31.6,69.36,69.36,0,0,0,150.23,3.94,69.3,69.3,0,0,0,131,31.61Z"/><path d="M158.44,114.14H142v-21a22.18,22.18,0,0,0-8.18,5.66,21,21,0,0,0-2.13,2.71l-1.13,1.7-1.29-1.59c-.83-1-1.73-2.06-2.67-3.07l-.41-.44v-.39a72.28,72.28,0,0,1-2.67-19.52c0-.45,0-.91,0-1.35s0-.91,0-1.35l.05-1.14c0-.2,0-.39,0-.57s0-.66.06-1a1.67,1.67,0,0,1,0-.28c0-.43.06-.86.1-1.28s.08-.86.14-1.3.14-1.16.23-1.76c0-.35.1-.73.16-1.11.23-1.56.54-3.14.92-4.84.07-.35.16-.73.26-1.1l.37-1.47.21-.76,0-.1c.09-.34.19-.68.29-1,.4-1.36.86-2.74,1.35-4.09l.73-2L130.21,53a71.73,71.73,0,0,1,14.39,16.5c.55.85,1.07,1.73,1.58,2.61a72.55,72.55,0,0,1,4,8.14,72.56,72.56,0,0,1,4.05-8.14c.47-.8.94-1.59,1.43-2.36A71.93,71.93,0,0,1,170.25,53l1.65-1.39.73,2c.5,1.39,1,2.76,1.33,4.06.14.45.27.91.39,1.37.08.26.15.54.23.82l0,.11c.09.32.17.67.26,1s.23,1,.35,1.5.18.84.26,1.26l0,.13c.18.88.34,1.77.48,2.66.05.27.1.57.14.86s.12.82.17,1.24.12.87.16,1.29c.14,1.21.24,2.34.31,3.45,0,.52.06,1.05.09,1.59s0,.93.05,1.39,0,1.21,0,1.83a72.29,72.29,0,0,1-2.73,19.73l-.09.35-.25.27c-1,1.07-1.87,2.07-2.68,3.07l-1.28,1.58-1.13-1.69a22.35,22.35,0,0,0-10.32-8.37Zm-13.42-3h10.42V89l1.92.56a25.14,25.14,0,0,1,11.08,6.74,23.16,23.16,0,0,1,1.65,1.9c.42-.48.85-1,1.31-1.47a69.32,69.32,0,0,0,2.52-18.57c0-.59,0-1.18,0-1.76s0-.88-.05-1.32,0-1-.08-1.52c-.07-1.08-.17-2.16-.3-3.32,0-.41-.1-.81-.15-1.22s-.11-.81-.17-1.21-.09-.56-.13-.82c-.13-.86-.29-1.7-.46-2.53l0-.13c-.09-.41-.17-.81-.26-1.21s-.21-1-.34-1.44-.15-.66-.24-1l0-.12c-.06-.25-.13-.51-.2-.76-.13-.45-.25-.9-.38-1.34-.18-.59-.37-1.19-.57-1.81a68.9,68.9,0,0,0-12.27,14.62c-.47.74-.93,1.5-1.37,2.27a68.94,68.94,0,0,0-5.24,11.26l-1.41,3.93-1.41-3.93a70.11,70.11,0,0,0-5.23-11.27c-.49-.84-1-1.68-1.51-2.49A68.85,68.85,0,0,0,129.94,56.7c-.2.62-.39,1.23-.58,1.85l-.27,1,0,.11c-.07.25-.14.49-.2.72l-.34,1.31c-.1.43-.19.78-.26,1.13-.37,1.65-.66,3.16-.89,4.66-.05.35-.11.71-.15,1.07-.09.58-.16,1.14-.22,1.7s-.09.84-.13,1.25-.08.86-.11,1.28l0,.21q0,.5-.06,1c0,.22,0,.36,0,.5l-.05,1c0,.5,0,.93,0,1.36s0,.87,0,1.3a69.32,69.32,0,0,0,2.52,18.57c.45.49.89,1,1.31,1.47q.62-.77,1.26-1.47a25.11,25.11,0,0,1,11.47-7.17L145,89Z"/><path d="M130.85,103l-4.23-4.54A59.23,59.23,0,0,0,93.47,80.62l-1-.16-.23-1A72.16,72.16,0,0,1,94.58,38L95,36.82l1.25.22a72.46,72.46,0,0,1,34,15.92l.8.68-.36,1a69.62,69.62,0,0,0-1.5,42.45ZM95,77.84A62.26,62.26,0,0,1,125,92.72a73,73,0,0,1-1.46-14.56,71.75,71.75,0,0,1,3.94-23.57A69.55,69.55,0,0,0,97,40.23,69.08,69.08,0,0,0,95,77.84Z"/><path d="M169.61,103.06l1.7-6a69.57,69.57,0,0,0,2.61-18.92,68.87,68.87,0,0,0-4.11-23.55l-.36-1,.8-.68A72.46,72.46,0,0,1,204.2,37l1.25-.22.43,1.19A72.18,72.18,0,0,1,208.2,79.5l-.23,1-1,.16a59.08,59.08,0,0,0-33.14,17.89ZM173,54.58a72.65,72.65,0,0,1,2.47,38.14A62.26,62.26,0,0,1,205.5,77.84a69,69,0,0,0-2-37.61A69.55,69.55,0,0,0,173,54.58Z"/><path d="M167.47,128.61l2.26-4.15c.31-.56.55-1,.76-1.52a22.3,22.3,0,0,0-1.74-21.48l-.61-.91.7-.86c.85-1,1.77-2.11,2.81-3.23A61.81,61.81,0,0,1,186,85.09c.5-.29,1-.57,1.51-.84a61.58,61.58,0,0,1,19-6.58l2.24-.39-.53,2.22a72.48,72.48,0,0,1-7.7,19.26l-.12.2-.56,1c-.18.3-.38.62-.59,1a2,2,0,0,1-.17.27c-.2.33-.42.66-.63,1a71.79,71.79,0,0,1-4.49,6.17l-.75.91c-.43.52-.88,1-1.32,1.54l-.19.21-.84.91-1.21,1.28c-.39.39-.76.77-1.15,1.14-1.56,1.54-3.2,3-4.87,4.36l-1,.81q-.72.57-1.44,1.11l-1.2.87c-.89.64-1.75,1.22-2.59,1.77-.44.29-.88.57-1.33.84s-.89.55-1.34.81-.9.53-1.37.79l-1.3.72-.12.06-.2.1Zm4.38-27.86a25.35,25.35,0,0,1,2.36,20.9l.26-.16,1.26-.8c.82-.53,1.63-1.09,2.5-1.71.39-.27.77-.55,1.13-.82s.93-.7,1.39-1.07l1-.77c1.6-1.3,3.18-2.71,4.68-4.19.38-.37.73-.72,1.09-1.09s.77-.8,1.16-1.22l.82-.89.11-.13c.47-.53.9-1,1.32-1.53l.72-.87a71.83,71.83,0,0,0,4.31-5.91l.63-1,.11-.18c.2-.31.39-.63.58-.95s.37-.62.55-.92l.11-.19a69.45,69.45,0,0,0,6.79-16.2,59,59,0,0,0-15.79,5.83c-.48.26-1,.52-1.43.79a58.61,58.61,0,0,0-13.62,10.83C173.13,99.28,172.47,100,171.85,100.75Z"/><path d="M178,133.19a62.21,62.21,0,0,1-11.36-1.05l-2.83-.54,2-2a21.6,21.6,0,0,0,3.88-5.13l.23-.41.64-.33,1.27-.7c.45-.25.88-.49,1.29-.74l1.3-.79c.43-.26.85-.53,1.27-.8.81-.53,1.65-1.1,2.5-1.71.39-.27.76-.55,1.13-.82l1.39-1.07.95-.77c1.61-1.3,3.18-2.71,4.69-4.19.38-.37.73-.73,1.09-1.09s.77-.8,1.15-1.22.56-.6.84-.91l.1-.11c.47-.53.9-1,1.32-1.53l.72-.87a70.58,70.58,0,0,0,4.31-5.91l.63-1,.11-.17c.2-.31.39-.62.58-.94s.4-.67.58-1l.08-.13a69.24,69.24,0,0,0,7.38-18.46l.23-1,1-.16A62,62,0,0,1,238,80.49l1.19.43-.23,1.24a61.88,61.88,0,0,1-60.94,51Zm-8.12-3.56a58.89,58.89,0,0,0,65.87-46.74A58.92,58.92,0,0,0,208,80.47a72.63,72.63,0,0,1-7.46,18.29l-.08.14c-.2.34-.4.68-.61,1s-.37.62-.58,1a1.45,1.45,0,0,1-.17.26c-.2.34-.42.66-.63,1a73.39,73.39,0,0,1-4.49,6.17l-.75.91-1.32,1.54-.18.19c-.29.32-.57.63-.86.93s-.8.86-1.2,1.28-.76.77-1.15,1.14c-1.56,1.54-3.21,3-4.88,4.36-.32.27-.66.54-1,.81s-1,.75-1.44,1.11-.79.59-1.2.87c-.88.63-1.75,1.23-2.6,1.77q-.65.43-1.32.84c-.44.28-.89.55-1.34.81s-.88.52-1.33.77l-1.22.67A25.55,25.55,0,0,1,169.87,129.63Z"/><path d="M133.07,128.8l-4.36-2.3a68.75,68.75,0,0,1-6.59-4c-.31-.2-.57-.38-.82-.56-1-.67-2-1.41-3-2.19-.32-.24-.66-.51-1-.78l-.94-.77a70.09,70.09,0,0,1-6.42-6l-.53-.57c-.77-.84-1.47-1.64-2.16-2.45l-.74-.9a71.85,71.85,0,0,1-4.5-6.18l-.63-1c-.06-.09-.12-.18-.17-.27l-.6-1-.55-.93-.11-.19A72.44,72.44,0,0,1,92.26,79.5l-.53-2.22,2.24.39a62,62,0,0,1,19,6.58c.51.28,1,.55,1.5.84a61.77,61.77,0,0,1,14.31,11.36l.4.45c.85.93,1.66,1.87,2.42,2.8l.69.86-.61.91a22.12,22.12,0,0,0-3.72,12.3,21.87,21.87,0,0,0,2,9.3v0c.21.46.44.92.69,1.37ZM103.85,99.39l.07.11c.2.33.41.66.63,1a66.38,66.38,0,0,0,4.3,5.92l.72.87c.65.78,1.33,1.54,2,2.29l.55.59a69.84,69.84,0,0,0,6.16,5.79l.92.75.93.73c1,.77,1.92,1.45,2.89,2.12.26.19.48.34.71.49.83.56,1.67,1.1,2.51,1.62a25.22,25.22,0,0,1,2.36-20.89c-.63-.76-1.3-1.51-2-2.25l-.41-.44A58.65,58.65,0,0,0,113,87.69l-1.43-.81a59.21,59.21,0,0,0-15.81-5.82,69.2,69.2,0,0,0,6.81,16.2l.11.19c.17.3.34.6.53.89s.39.67.59,1Z"/><path d="M122.46,133.19a61.89,61.89,0,0,1-60.94-51l-.22-1.24,1.19-.43A62,62,0,0,1,94,77.67l1,.16.23,1a69.13,69.13,0,0,0,7.39,18.46l.12.22c.17.29.34.58.52.86s.39.67.59,1l.12.18c.2.33.41.66.63,1a68.43,68.43,0,0,0,4.3,5.92l.72.87c.66.78,1.33,1.54,2,2.29l.55.59a69.84,69.84,0,0,0,6.16,5.79l.92.75c.32.26.62.5.93.73,1,.77,1.92,1.45,2.89,2.12l.76.52a66.43,66.43,0,0,0,6.32,3.79l.39.21.22.4a22.36,22.36,0,0,0,3.88,5.13l2.06,2-2.83.54A62.32,62.32,0,0,1,122.46,133.19ZM64.71,82.89a58.91,58.91,0,0,0,65.88,46.74,24.6,24.6,0,0,1-2.28-3.34,72.2,72.2,0,0,1-6.19-3.74c-.27-.18-.55-.36-.82-.56-1-.67-2-1.41-3-2.19-.32-.24-.66-.51-1-.78l-1-.78a72.44,72.44,0,0,1-6.4-6l-.53-.57c-.77-.84-1.47-1.64-2.15-2.45-.26-.3-.5-.6-.75-.9a71.85,71.85,0,0,1-4.5-6.18l-.63-1c-.06-.09-.12-.18-.17-.27l-.6-1-.53-.9-.13-.22a72.08,72.08,0,0,1-7.47-18.3A59,59,0,0,0,64.71,82.89Z"/></g></g></svg>