<?xml version="1.0"?>
<svg xmlns="http://www.w3.org/2000/svg" xmlns:xlink="http://www.w3.org/1999/xlink" xmlns:svgjs="http://svgjs.com/svgjs" version="1.1" width="512" height="512" x="0" y="0" viewBox="0 0 512.403 512.403" style="enable-background:new 0 0 512 512" xml:space="preserve" class=""><g><path xmlns="http://www.w3.org/2000/svg" d="m483.513 380.477 16.043 16.043c6.783 6.783 17.54-3.674 10.606-10.606l-16.043-16.043 15.727-15.727c6.637-6.636-3.668-17.545-10.606-10.606l-15.727 15.727-46.584-46.584c3.842-3.832 39.408-38.757 46.48-46.015l16.147 16.147c6.783 6.783 17.54-3.674 10.606-10.606l-16.256-16.256c5.259-5.324 10.483-10.495 15.929-15.511 7.116-6.554-3.045-17.587-10.162-11.033-5.593 5.151-11.036 10.539-16.373 15.938l-46.035-46.035 46.248-46.248 15.832 15.832c6.783 6.783 17.54-3.674 10.606-10.606l-15.832-15.832 15.938-15.938c6.637-6.636-3.668-17.545-10.606-10.606l-15.938 15.938-46.143-46.143 46.248-46.248 15.727 15.727c6.783 6.783 17.54-3.674 10.606-10.606l-15.727-15.727 15.832-15.832c6.637-6.636-3.668-17.545-10.606-10.606l-15.832 15.832-15.831-15.835c-6.636-6.636-17.546 3.668-10.606 10.606l15.832 15.832-46.248 46.248-46.248-46.248 15.833-15.833c6.637-6.636-3.668-17.545-10.606-10.606l-15.834 15.833-15.832-15.832c-6.636-6.636-17.546 3.668-10.606 10.606l15.833 15.833-46.248 46.248-46.248-46.248 15.832-15.832c6.637-6.636-3.668-17.545-10.606-10.606l-15.832 15.832-15.834-15.833c-6.636-6.636-17.546 3.668-10.606 10.606l15.832 15.832-46.248 46.248-46.247-46.247 15.832-15.832c6.637-6.636-3.668-17.545-10.606-10.606l-15.832 15.832-15.833-15.833c-6.636-6.636-17.546 3.668-10.606 10.606l15.832 15.832-46.248 46.248-46.248-46.247 15.832-15.832c6.637-6.636-3.668-17.545-10.606-10.606l-15.832 15.831-15.833-15.832c-6.636-6.636-17.546 3.668-10.606 10.606l15.832 15.832-15.727 15.727c-6.934 6.932 3.824 17.389 10.606 10.606l15.727-15.727 46.248 46.248-45.934 45.934c-5.374-5.342-10.801-10.649-16.282-15.861-7.01-6.668-17.347 4.204-10.336 10.87 5.378 5.114 10.716 10.335 16.011 15.598l-16.04 16.041c-6.934 6.932 3.824 17.389 10.606 10.606l16.019-16.019c5.966 6.042 11.867 12.091 17.685 18.057 9.18 9.415 18.584 19.024 28.179 28.574l-46.05 46.052-15.937-15.938c-6.636-6.636-17.546 3.668-10.606 10.606l15.937 15.938-16.044 16.043c-6.934 6.932 3.824 17.389 10.606 10.606l16.043-16.043 46.248 46.248-46.247 46.248-15.727-15.727c-6.636-6.636-17.546 3.668-10.606 10.606l15.727 15.727-16.044 16.044c-6.934 6.932 3.824 17.389 10.606 10.606l16.043-16.043 46.248 46.248-46.247 46.248-15.727-15.727c-6.636-6.636-17.546 3.668-10.606 10.606l15.727 15.727-15.833 15.833c-6.934 6.932 3.824 17.389 10.606 10.606l15.832-15.832 15.832 15.832c6.783 6.783 17.54-3.674 10.606-10.606l-15.831-15.832 46.248-46.248 46.142 46.142-15.938 15.938c-6.934 6.932 3.824 17.389 10.606 10.606l15.938-15.938 15.938 15.938c6.783 6.783 17.54-3.674 10.606-10.606l-15.936-15.938 46.248-46.248 46.329 46.33c-5.327 5.289-10.656 10.568-15.981 15.819-6.984 6.885 3.706 17.412 10.531 10.681 5.351-5.276 10.705-10.58 16.056-15.893l15.856 15.856c6.783 6.783 17.54-3.674 10.606-10.606l-15.827-15.827c15.483-15.428 30.896-30.896 46.06-46.137 15.43 15.391 30.852 30.759 46.258 46.094l-15.87 15.87c-6.934 6.932 3.824 17.389 10.606 10.606l15.897-15.897c5.331 5.304 10.668 10.618 15.993 15.913 6.801 6.761 17.529-3.723 10.576-10.638-5.315-5.284-10.642-10.588-15.962-15.882l46.183-46.183 46.248 46.248-15.832 15.832c-6.934 6.932 3.824 17.389 10.606 10.606l15.832-15.832 15.832 15.832c6.783 6.783 17.54-3.674 10.606-10.606l-15.831-15.832 15.727-15.727c6.637-6.636-3.668-17.545-10.606-10.606l-15.727 15.727-46.248-46.248zm-10.606-10.606-46.248 46.248-46.264-46.264c2.121-2.112 4.242-4.224 6.362-6.331 6.658-6.616-3.612-17.555-10.573-10.64-2.131 2.118-4.263 4.241-6.395 6.364l-46.232-46.232 46.248-46.248 46.021 46.021c-2.195 2.302-4.377 4.63-6.532 6.997-6.498 7.139 4.552 17.282 11.093 10.098 2.005-2.203 4.022-4.356 6.048-6.486zm-206.286.082 46.33-46.33 46.218 46.218c-15.578 15.563-31.085 31.151-46.229 46.377-15.443-15.411-30.886-30.832-46.319-46.265zm-10.419-216.787 46.248 46.248-46.248 46.248-46.248-46.248zm-56.855 35.641-46.247-46.248 46.248-46.248 46.248 46.248zm124.316 10.607 46.248-46.248 46.143 46.143-46.248 46.248zm35.536 56.749-46.248 46.248-46.142-46.142 46.248-46.248zm-46.143-67.356-46.248-46.248 46.248-46.248 46.248 46.248zm-67.461 67.461-46.28 46.28c-15.425-15.471-30.805-30.917-46.153-46.343l46.185-46.186zm-56.887 56.887-46.11 46.11-46.248-46.248 46.204-46.204c15.35 15.425 30.729 30.871 46.154 46.342zm10.594 10.619c15.347 15.385 30.719 30.78 46.109 46.176l-46.064 46.064-46.142-46.142zm10.607-10.607 46.293-46.293 46.142 46.142-46.326 46.326c-15.39-15.395-30.762-30.789-46.109-46.175zm262.893-57.109c-7.028 7.214-42.507 42.056-46.478 46.018l-45.913-45.913 46.248-46.248zm.105-113.604-46.248 46.248-46.143-46.143 46.248-46.248zm-102.997-102.997 46.248 46.248-46.248 46.248-46.248-46.248zm-113.708 0 46.248 46.248-46.248 46.248-46.248-46.248zm-113.709 0 46.248 46.248-46.248 46.248-46.248-46.248zm-84.992 121.002c-5.859-6.009-11.802-12.1-17.817-18.192l45.955-45.956 46.248 46.248-46.354 46.354c-9.538-9.491-18.885-19.073-28.032-28.454zm-18.005 95.703 46.148-46.148c2.098 2.035 4.181 4.082 6.3 6.099 6.993 6.655 17.356-4.191 10.34-10.867-2.027-1.928-4.044-3.869-6.054-5.817l46.262-46.262 46.248 46.248-46.159 46.159c-2.125-2.137-4.261-4.281-6.384-6.417-6.618-6.654-17.557 3.617-10.638 10.576 2.134 2.146 4.279 4.3 6.415 6.447l-46.23 46.23zm0 113.709 46.248-46.248 46.248 46.248-46.248 46.248zm102.997 102.997-46.142-46.142 46.248-46.248 46.142 46.142zm113.819.11-46.358-46.358 46.06-46.06c15.442 15.442 30.895 30.873 46.347 46.293-15.163 15.239-30.574 30.705-46.049 46.125zm113.531-.043c-15.415-15.345-30.846-30.721-46.286-46.122 15.142-15.224 30.647-30.81 46.218-46.365l46.277 46.277z" fill="#00bf73" data-original="#000000" style="" class=""/></g></svg>
